<svg width="500" height="500" viewBox="0 0 500 500" fill="none" xmlns="http://www.w3.org/2000/svg">
<path d="M249.53 480.93C378.914 480.93 483.8 420.372 483.8 345.67C483.8 270.968 378.914 210.41 249.53 210.41C120.146 210.41 15.2598 270.968 15.2598 345.67C15.2598 420.372 120.146 480.93 249.53 480.93Z" fill="#F5F5F5"/>
<path d="M438.58 391.87L361.09 347C360.754 346.827 360.382 346.737 360.005 346.737C359.628 346.737 359.256 346.827 358.92 347L288.11 387.79C287.979 387.834 287.866 387.918 287.786 388.031C287.705 388.143 287.662 388.277 287.662 388.415C287.662 388.553 287.705 388.687 287.786 388.799C287.866 388.912 287.979 388.996 288.11 389.04L365.61 433.91C365.944 434.083 366.314 434.173 366.69 434.173C367.066 434.173 367.436 434.083 367.77 433.91L438.59 393.12C439.18 392.78 439.18 392.22 438.58 391.87Z" fill="#E0E0E0"/>
<path d="M375 294.68L297.5 249.81C297.165 249.642 296.795 249.554 296.42 249.554C296.045 249.554 295.675 249.642 295.34 249.81L85.1697 370.92C84.5697 371.26 84.5697 371.82 85.1697 372.17L162.66 417C162.994 417.17 163.364 417.259 163.74 417.259C164.115 417.259 164.485 417.17 164.82 417L375 295.93C375.13 295.886 375.244 295.802 375.324 295.689C375.404 295.577 375.448 295.443 375.448 295.305C375.448 295.167 375.404 295.033 375.324 294.921C375.244 294.808 375.13 294.724 375 294.68Z" fill="#E0E0E0"/>
<path d="M104.55 316.47C131.385 316.47 153.14 303.912 153.14 288.42C153.14 272.928 131.385 260.37 104.55 260.37C77.7144 260.37 55.96 272.928 55.96 288.42C55.96 303.912 77.7144 316.47 104.55 316.47Z" fill="#E0E0E0"/>
<path d="M98.73 375.14C93.4248 377.732 87.5303 378.88 81.64 378.47C71.45 377.9 68.12 372.25 68.12 372.25C68.12 372.25 73.99 363.84 80.12 362.46C80.12 362.46 70.21 362.35 61.5 365.78C61.5 365.78 55.5 364.58 55.04 354.87C55.04 354.87 59.8 350.11 72.41 349.71C72.41 349.71 65.53 346.31 54.46 346.71C53.61 346.85 52.81 334.25 52.98 328.55C53.15 322.85 55.34 323.39 59.86 323.17C64.38 322.95 79.08 325.37 81.25 328.3C83.42 331.23 83.04 339.55 83.04 339.55C85.2979 336.594 86.8847 333.181 87.69 329.55C87.69 329.55 90.56 329.14 96.46 332.55C107.33 338.82 108.16 346.14 108.27 351.7C108.42 357.87 106.53 369.37 98.73 375.14Z" fill="#EF1A23"/>
<path d="M98.6102 375.7C98.5074 375.675 98.4133 375.623 98.3377 375.549C98.262 375.475 98.2076 375.382 98.1802 375.28C93.7902 357.03 68.3602 331.45 58.1802 327.11C58.1112 327.08 58.0488 327.038 57.9964 326.984C57.944 326.93 57.9027 326.867 57.8748 326.797C57.847 326.727 57.8331 326.653 57.834 326.578C57.8349 326.503 57.8506 326.429 57.8802 326.36C57.9097 326.291 57.9526 326.229 58.0062 326.176C58.0599 326.124 58.1234 326.082 58.193 326.055C58.2627 326.027 58.3371 326.013 58.4121 326.014C58.4871 326.015 58.5612 326.03 58.6302 326.06C69.0002 330.48 94.8302 356.48 99.2802 375C99.2995 375.072 99.3042 375.146 99.2939 375.22C99.2836 375.293 99.2585 375.364 99.2202 375.427C99.1819 375.491 99.1312 375.546 99.071 375.589C99.0108 375.633 98.9425 375.664 98.8702 375.68C98.7872 375.712 98.6969 375.719 98.6102 375.7Z" fill="white"/>
<path d="M361 284.65C360.39 283.08 359.941 281.451 359.66 279.79C358.94 276.073 359.255 272.23 360.57 268.68C361.241 266.914 362.268 265.304 363.588 263.952C364.907 262.6 366.491 261.534 368.24 260.82C369.463 260.516 370.599 259.934 371.56 259.12C372.468 258.036 373.148 256.782 373.56 255.43C374.184 253.219 375.001 251.068 376 249C377.463 246.667 379.709 244.932 382.335 244.106C384.961 243.279 387.795 243.416 390.33 244.49C391.47 245.02 392.51 245.73 393.68 246.16C397.41 247.53 401.51 243.96 404.91 242.78C408.96 241.38 413.69 240.68 417.63 242.78C422.56 245.42 422.96 250.93 419.15 254.92C417.36 256.79 415.15 258.5 414.51 261.01C413.61 264.64 416.51 268.3 416 272.01C415.5 275.95 413.24 277.4 409.6 278.52L405.51 279.79C403.839 280.14 402.3 280.954 401.07 282.14C399.36 284.14 399.4 287.32 398.73 289.74C398.332 291.008 397.672 292.178 396.794 293.175C395.915 294.173 394.838 294.975 393.63 295.53C389.11 297.796 384.014 298.656 379 298C375.924 297.741 372.922 296.91 370.15 295.55C366.15 293.43 362.91 289.17 361.15 285.08L361 284.65Z" fill="#EF1A23"/>
<path d="M365.56 289C366.74 289.67 368.74 285.32 369.32 284.51C370.79 282.42 372.32 280.4 373.97 278.43C376.906 274.882 380.084 271.54 383.48 268.43C388.585 263.691 394.192 259.523 400.2 256C402.657 254.506 405.233 253.215 407.9 252.14C408.048 252.084 408.168 251.971 408.234 251.827C408.299 251.683 408.305 251.519 408.25 251.37C408.225 251.296 408.184 251.228 408.132 251.17C408.079 251.112 408.016 251.066 407.945 251.033C407.874 251 407.797 250.982 407.719 250.98C407.641 250.978 407.563 250.991 407.49 251.02C398.83 254.29 390.77 260.28 383.92 266.36C380.316 269.559 376.944 273.011 373.83 276.69C372.61 278.12 364.28 287.89 365.48 288.89L365.56 289Z" fill="white"/>
<path d="M381.65 269.74H381.79C390.21 268.83 403.23 271.41 403.36 271.43C403.515 271.459 403.676 271.427 403.807 271.339C403.938 271.251 404.029 271.115 404.06 270.96C404.076 270.883 404.077 270.804 404.062 270.727C404.047 270.65 404.016 270.576 403.972 270.511C403.929 270.446 403.872 270.39 403.807 270.347C403.741 270.304 403.668 270.274 403.59 270.26C403.05 270.15 390.27 267.63 381.66 268.55C381.504 268.55 381.354 268.612 381.243 268.723C381.132 268.833 381.07 268.984 381.07 269.14C381.07 269.296 381.132 269.447 381.243 269.557C381.354 269.668 381.504 269.73 381.66 269.73L381.65 269.74Z" fill="white"/>
<path d="M386.001 265.82C386.079 265.825 386.157 265.815 386.232 265.79C386.306 265.764 386.375 265.725 386.433 265.672C386.492 265.62 386.54 265.557 386.573 265.486C386.607 265.415 386.627 265.338 386.631 265.26C386.857 260.957 386.466 256.643 385.471 252.45C385.424 252.304 385.323 252.181 385.189 252.107C385.055 252.033 384.897 252.013 384.749 252.051C384.6 252.09 384.472 252.183 384.39 252.313C384.309 252.443 384.28 252.6 384.311 252.75C385.264 256.824 385.644 261.011 385.441 265.19C385.432 265.348 385.486 265.502 385.591 265.62C385.696 265.738 385.843 265.81 386.001 265.82Z" fill="white"/>
<path d="M368.36 295.42L302.4 333.5V293.42L368.36 255.33V295.42Z" fill="#FFC100"/>
<path d="M236.44 295.42L302.4 333.5V293.42L236.44 255.33V295.42Z" fill="#263238"/>
<path d="M368.36 255.33L302.4 217.25L236.44 255.33L302.4 293.42L368.36 255.33Z" fill="black"/>
<path d="M314 262.79C317.21 264.64 318.81 267.07 318.81 269.5V276C318.81 278.43 317.21 280.86 314 282.71C310.423 284.611 306.42 285.568 302.37 285.49V260C306.422 259.92 310.426 260.881 314 262.79Z" fill="#37474F"/>
<path d="M290.77 262.79C287.56 264.64 285.96 267.07 285.96 269.5V276C285.96 278.43 287.56 280.86 290.77 282.71C294.347 284.611 298.35 285.568 302.4 285.49V260C298.349 259.92 294.344 260.881 290.77 262.79Z" fill="#263238"/>
<path d="M290.77 262.79C284.35 266.49 284.35 272.5 290.77 276.21C297.19 279.92 307.6 279.92 314.03 276.21C320.46 272.5 320.45 266.49 314.03 262.79C307.61 259.09 297.19 259.08 290.77 262.79Z" fill="#455A64"/>
<path opacity="0.07" d="M290.77 262.79C284.35 266.49 284.35 272.5 290.77 276.21C297.19 279.92 307.6 279.92 314.03 276.21C320.46 272.5 320.45 266.49 314.03 262.79C307.61 259.09 297.19 259.08 290.77 262.79Z" fill="white"/>
<path d="M314 225.64C317.21 227.49 318.81 229.92 318.81 232.35V238.84C318.81 241.27 317.21 243.7 314 245.55C310.425 247.455 306.421 248.413 302.37 248.33V222.86C306.42 222.782 310.423 223.739 314 225.64Z" fill="#37474F"/>
<path d="M290.77 225.64C287.56 227.49 285.96 229.92 285.96 232.35V238.84C285.96 241.27 287.56 243.7 290.77 245.55C294.345 247.455 298.349 248.413 302.4 248.33V222.86C298.35 222.782 294.347 223.739 290.77 225.64Z" fill="#263238"/>
<path d="M290.77 225.64C284.35 229.35 284.35 235.36 290.77 239.07C297.19 242.78 307.6 242.77 314.03 239.07C320.46 235.37 320.45 229.35 314.03 225.64C307.61 221.93 297.19 221.93 290.77 225.64Z" fill="#455A64"/>
<path opacity="0.07" d="M290.77 225.64C284.35 229.35 284.35 235.36 290.77 239.07C297.19 242.78 307.6 242.77 314.03 239.07C320.46 235.37 320.45 229.35 314.03 225.64C307.61 221.93 297.19 221.93 290.77 225.64Z" fill="white"/>
<path d="M346.18 244.22C349.39 246.07 351 248.5 351 250.93V257.42C351 259.85 349.39 262.28 346.18 264.13C342.607 266.031 338.607 266.988 334.56 266.91V241.44C338.607 241.357 342.608 242.314 346.18 244.22Z" fill="#37474F"/>
<path d="M322.93 244.22C319.72 246.07 318.12 248.5 318.12 250.93V257.42C318.12 259.85 319.72 262.28 322.93 264.13C326.507 266.031 330.51 266.988 334.56 266.91V241.44C330.51 241.357 326.505 242.315 322.93 244.22Z" fill="#263238"/>
<path d="M322.93 244.22C316.51 247.92 316.51 253.93 322.93 257.64C329.35 261.35 339.76 261.35 346.18 257.64C352.6 253.93 352.61 247.92 346.18 244.22C339.75 240.52 329.35 240.51 322.93 244.22Z" fill="#455A64"/>
<path opacity="0.07" d="M322.93 244.22C316.51 247.92 316.51 253.93 322.93 257.64C329.35 261.35 339.76 261.35 346.18 257.64C352.6 253.93 352.61 247.92 346.18 244.22C339.75 240.52 329.35 240.51 322.93 244.22Z" fill="white"/>
<path d="M281.87 244.2C285.08 246.06 286.68 248.49 286.68 250.92V257.41C286.68 259.83 285.08 262.26 281.87 264.12C278.293 266.021 274.29 266.978 270.24 266.9V241.42C274.29 241.342 278.293 242.299 281.87 244.2Z" fill="#37474F"/>
<path d="M258.61 244.2C255.4 246.06 253.8 248.49 253.8 250.92V257.41C253.8 259.83 255.4 262.26 258.61 264.12C262.187 266.021 266.19 266.978 270.24 266.9V241.42C266.19 241.342 262.187 242.299 258.61 244.2Z" fill="#263238"/>
<path d="M258.61 244.2C252.19 247.91 252.19 253.92 258.61 257.63C265.03 261.34 275.45 261.34 281.87 257.63C288.29 253.92 288.29 247.91 281.87 244.2C275.45 240.49 265 240.5 258.61 244.2Z" fill="#455A64"/>
<path opacity="0.07" d="M258.61 244.2C252.19 247.91 252.19 253.92 258.61 257.63C265.03 261.34 275.45 261.34 281.87 257.63C288.29 253.92 288.29 247.91 281.87 244.2C275.45 240.49 265 240.5 258.61 244.2Z" fill="white"/>
<path d="M432.65 393.06L366.69 431.14V391.05L432.65 352.97V393.06Z" fill="#EF1A23"/>
<path opacity="0.1" d="M432.65 393.06L366.69 431.14V391.05L432.65 352.97V393.06Z" fill="black"/>
<path d="M300.74 393.06L366.69 431.14V391.05L300.73 352.97L300.74 393.06Z" fill="#EF1A23"/>
<path opacity="0.2" d="M300.74 393.06L366.69 431.14V391.05L300.73 352.97L300.74 393.06Z" fill="black"/>
<path d="M432.65 352.97L366.69 314.89L300.73 352.97L366.69 391.05L432.65 352.97Z" fill="#EF1A23"/>
<path d="M383.13 330C383.13 327.57 381.53 325.14 378.32 323.29C371.9 319.58 361.49 319.58 355.07 323.29C351.86 325.14 350.25 327.57 350.25 330V336.49C350.25 338.92 351.86 341.34 355.07 343.2C361.49 346.91 371.9 346.91 378.32 343.2C381.53 341.34 383.14 338.92 383.13 336.49V330Z" fill="#EF1A23"/>
<path opacity="0.1" d="M378.32 323.28C381.53 325.13 383.14 327.56 383.13 329.99V336.48C383.13 338.91 381.53 341.33 378.32 343.19C374.746 345.101 370.743 346.069 366.69 346V320.5C370.74 320.417 374.745 321.375 378.32 323.28Z" fill="black"/>
<path opacity="0.2" d="M355.07 323.28C351.86 325.13 350.25 327.56 350.25 329.99V336.48C350.25 338.91 351.86 341.33 355.07 343.19C358.641 345.1 362.641 346.067 366.69 346V320.5C362.643 320.419 358.642 321.376 355.07 323.28Z" fill="black"/>
<path d="M355.07 323.28C348.65 326.98 348.65 332.99 355.07 336.7C361.49 340.41 371.9 340.41 378.32 336.7C384.74 332.99 384.74 326.98 378.32 323.28C371.9 319.58 361.49 319.57 355.07 323.28Z" fill="#EF1A23"/>
<path opacity="0.3" d="M355.07 323.28C348.65 326.98 348.65 332.99 355.07 336.7C361.49 340.41 371.9 340.41 378.32 336.7C384.74 332.99 384.74 326.98 378.32 323.28C371.9 319.58 361.49 319.57 355.07 323.28Z" fill="white"/>
<path d="M383.13 367.13C383.13 364.71 381.53 362.28 378.32 360.42C371.9 356.71 361.49 356.71 355.07 360.42C351.86 362.28 350.25 364.7 350.25 367.13V373.62C350.25 376.05 351.86 378.48 355.07 380.33C361.49 384.04 371.9 384.04 378.32 380.33C381.53 378.48 383.14 376.05 383.13 373.62V367.13Z" fill="#EF1A23"/>
<path opacity="0.1" d="M378.32 360.42C381.53 362.28 383.14 364.7 383.13 367.13V373.62C383.13 376.05 381.53 378.48 378.32 380.33C374.746 382.24 370.741 383.198 366.69 383.11V357.64C370.74 357.562 374.743 358.519 378.32 360.42Z" fill="black"/>
<path opacity="0.2" d="M355.07 360.42C351.86 362.28 350.25 364.7 350.25 367.13V373.62C350.25 376.05 351.86 378.48 355.07 380.33C358.64 382.239 362.642 383.196 366.69 383.11V357.64C362.643 357.564 358.644 358.52 355.07 360.42Z" fill="black"/>
<path d="M355.07 360.42C348.65 364.13 348.65 370.14 355.07 373.85C361.49 377.56 371.9 377.55 378.32 373.85C384.74 370.15 384.74 364.13 378.32 360.42C371.9 356.71 361.49 356.71 355.07 360.42Z" fill="#EF1A23"/>
<path opacity="0.3" d="M355.07 360.42C348.65 364.13 348.65 370.14 355.07 373.85C361.49 377.56 371.9 377.55 378.32 373.85C384.74 370.15 384.74 364.13 378.32 360.42C371.9 356.71 361.49 356.71 355.07 360.42Z" fill="white"/>
<path d="M351 348.55C351 346.12 349.39 343.69 346.18 341.84C339.76 338.13 329.35 338.13 322.93 341.84C319.72 343.69 318.11 346.12 318.11 348.55V355C318.11 357.43 319.72 359.86 322.93 361.71C329.35 365.42 339.76 365.42 346.18 361.71C349.39 359.86 351 357.43 351 355C351 353.24 351 350.35 351 348.55Z" fill="#EF1A23"/>
<path opacity="0.1" d="M346.16 341.84C349.37 343.69 350.98 346.12 350.98 348.55C350.98 350.35 350.98 353.24 350.98 355.04C350.98 357.47 349.37 359.9 346.16 361.75C342.584 363.656 338.58 364.613 334.53 364.53V339.06C338.58 338.982 342.583 339.939 346.16 341.84Z" fill="black"/>
<path opacity="0.2" d="M322.91 341.84C319.7 343.69 318.09 346.12 318.09 348.55V355C318.09 357.43 319.7 359.86 322.91 361.71C326.482 363.614 330.483 364.571 334.53 364.49V339.06C330.483 338.984 326.484 339.94 322.91 341.84Z" fill="black"/>
<path d="M322.91 341.84C316.49 345.55 316.49 351.56 322.91 355.26C329.33 358.96 339.74 358.97 346.16 355.26C352.58 351.55 352.58 345.55 346.16 341.84C339.74 338.13 329.33 338.13 322.91 341.84Z" fill="#EF1A23"/>
<path opacity="0.3" d="M322.91 341.84C316.49 345.55 316.49 351.56 322.91 355.26C329.33 358.96 339.74 358.97 346.16 355.26C352.58 351.55 352.58 345.55 346.16 341.84C339.74 338.13 329.33 338.13 322.91 341.84Z" fill="white"/>
<path d="M415.29 348.56C415.29 346.13 413.69 343.7 410.48 341.85C404.06 338.14 393.65 338.14 387.23 341.85C384.01 343.7 382.41 346.13 382.41 348.56V355.05C382.41 357.48 384.01 359.91 387.22 361.76C393.65 365.47 404.06 365.47 410.48 361.76C413.69 359.91 415.29 357.48 415.29 355.05V348.56Z" fill="#EF1A23"/>
<path opacity="0.1" d="M410.48 341.85C413.69 343.7 415.29 346.13 415.29 348.56V355.05C415.29 357.48 413.69 359.91 410.48 361.76C406.905 363.666 402.901 364.623 398.85 364.54V339.07C402.9 338.992 406.903 339.949 410.48 341.85Z" fill="black"/>
<path opacity="0.2" d="M387.23 341.85C384.01 343.7 382.41 346.13 382.41 348.56V355.05C382.41 357.48 384.01 359.91 387.22 361.76C390.796 363.664 394.8 364.621 398.85 364.54V339.07C394.803 338.992 390.804 339.949 387.23 341.85Z" fill="black"/>
<path d="M387.23 341.85C380.8 345.56 380.8 351.57 387.23 355.28C393.66 358.99 404.07 358.98 410.49 355.28C416.91 351.58 416.91 345.56 410.49 341.85C404.07 338.14 393.65 338.14 387.23 341.85Z" fill="#EF1A23"/>
<path opacity="0.3" d="M387.23 341.85C380.8 345.56 380.8 351.57 387.23 355.28C393.66 358.99 404.07 358.98 410.49 355.28C416.91 351.58 416.91 345.56 410.49 341.85C404.07 338.14 393.65 338.14 387.23 341.85Z" fill="white"/>
<path d="M368.36 252.43L302.4 290.51V250.42L368.36 212.34V252.43Z" fill="#EF1A23"/>
<path opacity="0.3" d="M368.36 252.43L302.4 290.51V250.42L368.36 212.34V252.43Z" fill="black"/>
<path d="M236.44 252.43L302.4 290.51V250.42L236.44 212.34V252.43Z" fill="#EF1A23"/>
<path opacity="0.4" d="M236.44 252.43L302.4 290.51V250.42L236.44 212.34V252.43Z" fill="black"/>
<path d="M368.36 212.34L302.4 174.26L236.44 212.34L302.4 250.42L368.36 212.34Z" fill="#EF1A23"/>
<path opacity="0.55" d="M368.36 212.34L302.4 174.26L236.44 212.34L302.4 250.42L368.36 212.34Z" fill="black"/>
<path d="M318.84 189.36C318.84 186.93 317.24 184.5 314.03 182.65C307.61 178.94 297.19 178.94 290.77 182.65C287.56 184.5 285.96 186.93 285.96 189.36V195.85C285.96 198.28 287.56 200.71 290.77 202.56C297.19 206.27 307.6 206.27 314.03 202.56C317.24 200.71 318.84 198.28 318.84 195.85V189.36Z" fill="#EF1A23"/>
<path opacity="0.3" d="M314 182.65C317.21 184.5 318.81 186.93 318.81 189.36V195.85C318.81 198.28 317.21 200.71 314 202.56C310.423 204.461 306.42 205.418 302.37 205.34V179.87C306.421 179.787 310.425 180.745 314 182.65Z" fill="black"/>
<path opacity="0.4" d="M290.77 182.65C287.56 184.5 285.96 186.93 285.96 189.36V195.85C285.96 198.28 287.56 200.71 290.77 202.56C294.347 204.461 298.35 205.418 302.4 205.34V179.87C298.349 179.787 294.345 180.745 290.77 182.65Z" fill="black"/>
<path d="M290.77 182.65C284.35 186.35 284.35 192.36 290.77 196.07C297.19 199.78 307.6 199.78 314.03 196.07C320.46 192.36 320.45 186.35 314.03 182.65C307.61 178.95 297.19 178.94 290.77 182.65Z" fill="#EF1A23"/>
<path opacity="0.3" d="M290.77 182.65C284.35 186.35 284.35 192.36 290.77 196.07C297.19 199.78 307.6 199.78 314.03 196.07C320.46 192.36 320.45 186.35 314.03 182.65C307.61 178.95 297.19 178.94 290.77 182.65Z" fill="white"/>
<path d="M318.84 226.51C318.84 224.08 317.24 221.65 314.03 219.79C307.61 216.09 297.19 216.09 290.77 219.79C287.56 221.65 285.96 224.08 285.96 226.5V233C285.96 235.43 287.56 237.86 290.77 239.72C297.19 243.42 307.6 243.42 314.03 239.72C317.24 237.86 318.84 235.43 318.84 233V226.51Z" fill="#EF1A23"/>
<path opacity="0.3" d="M314 219.79C317.21 221.65 318.81 224.08 318.81 226.5V233C318.81 235.43 317.21 237.86 314 239.72C310.423 241.621 306.42 242.578 302.37 242.5V217C306.421 216.925 310.424 217.886 314 219.79Z" fill="black"/>
<path opacity="0.4" d="M290.77 219.79C287.56 221.65 285.96 224.08 285.96 226.5V233C285.96 235.43 287.56 237.86 290.77 239.72C294.347 241.621 298.35 242.578 302.4 242.5V217C298.349 216.925 294.346 217.886 290.77 219.79Z" fill="black"/>
<path d="M290.77 219.79C284.35 223.5 284.35 229.51 290.77 233.22C297.19 236.93 307.6 236.93 314.03 233.22C320.46 229.51 320.45 223.5 314.03 219.79C307.61 216.08 297.19 216.09 290.77 219.79Z" fill="#EF1A23"/>
<path opacity="0.3" d="M290.77 219.79C284.35 223.5 284.35 229.51 290.77 233.22C297.19 236.93 307.6 236.93 314.03 233.22C320.46 229.51 320.45 223.5 314.03 219.79C307.61 216.08 297.19 216.09 290.77 219.79Z" fill="white"/>
<path d="M286.68 207.92C286.68 205.49 285.08 203.06 281.87 201.21C275.45 197.5 265.04 197.5 258.61 201.21C255.4 203.06 253.8 205.49 253.8 207.92V214.41C253.8 216.84 255.4 219.27 258.61 221.12C265.03 224.83 275.45 224.83 281.87 221.12C285.08 219.27 286.68 216.84 286.68 214.41V207.92Z" fill="#EF1A23"/>
<path opacity="0.3" d="M281.87 201.21C285.08 203.06 286.68 205.49 286.68 207.92V214.41C286.68 216.84 285.08 219.27 281.87 221.12C278.294 223.026 274.29 223.983 270.24 223.9V198.43C274.29 198.352 278.293 199.309 281.87 201.21Z" fill="black"/>
<path opacity="0.4" d="M258.61 201.21C255.4 203.06 253.8 205.49 253.8 207.92V214.41C253.8 216.84 255.4 219.27 258.61 221.12C262.185 223.026 266.189 223.983 270.24 223.9V198.43C266.19 198.352 262.187 199.309 258.61 201.21Z" fill="black"/>
<path d="M258.61 201.21C252.19 204.92 252.19 210.93 258.61 214.64C265.03 218.35 275.45 218.34 281.87 214.64C288.29 210.94 288.29 204.92 281.87 201.21C275.45 197.5 265 197.5 258.61 201.21Z" fill="#EF1A23"/>
<path opacity="0.3" d="M258.61 201.21C252.19 204.92 252.19 210.93 258.61 214.64C265.03 218.35 275.45 218.34 281.87 214.64C288.29 210.94 288.29 204.92 281.87 201.21C275.45 197.5 265 197.5 258.61 201.21Z" fill="white"/>
<path d="M351 207.93C351 205.51 349.4 203.08 346.18 201.22C339.76 197.51 329.35 197.51 322.93 201.22C319.72 203.08 318.12 205.5 318.12 207.93V214.42C318.12 216.85 319.72 219.28 322.93 221.13C329.35 224.84 339.76 224.84 346.18 221.13C349.4 219.28 351 216.85 351 214.42V207.93Z" fill="#EF1A23"/>
<path opacity="0.3" d="M346.18 201.22C349.39 203.08 351 205.5 351 207.93V214.42C351 216.85 349.39 219.28 346.18 221.13C342.608 223.035 338.607 223.993 334.56 223.91V198.44C338.607 198.362 342.607 199.319 346.18 201.22Z" fill="black"/>
<path opacity="0.4" d="M322.93 201.22C319.72 203.08 318.12 205.5 318.12 207.93V214.42C318.12 216.85 319.72 219.28 322.93 221.13C326.505 223.036 330.51 223.993 334.56 223.91V198.44C330.51 198.362 326.507 199.319 322.93 201.22Z" fill="black"/>
<path d="M322.93 201.22C316.51 204.93 316.51 210.94 322.93 214.65C329.35 218.36 339.76 218.35 346.18 214.65C352.6 210.95 352.61 204.93 346.18 201.22C339.75 197.51 329.35 197.51 322.93 201.22Z" fill="#EF1A23"/>
<path opacity="0.3" d="M322.93 201.22C316.51 204.93 316.51 210.94 322.93 214.65C329.35 218.36 339.76 218.35 346.18 214.65C352.6 210.95 352.61 204.93 346.18 201.22C339.75 197.51 329.35 197.51 322.93 201.22Z" fill="white"/>
<path d="M298.93 335.5L232.97 373.59V333.5L298.93 295.42V335.5Z" fill="#EF1A23"/>
<path opacity="0.3" d="M298.93 335.5L232.97 373.59V333.5L298.93 295.42V335.5Z" fill="black"/>
<path d="M167.01 335.5L232.97 373.59V333.5L167.01 295.42V335.5Z" fill="#EF1A23"/>
<path opacity="0.4" d="M167.01 335.5L232.97 373.59V333.5L167.01 295.42V335.5Z" fill="black"/>
<path d="M298.93 295.42L232.97 257.34L167.01 295.42L232.97 333.5L298.93 295.42Z" fill="#EF1A23"/>
<path opacity="0.55" d="M298.93 295.42L232.97 257.34L167.01 295.42L232.97 333.5L298.93 295.42Z" fill="black"/>
<path d="M249.41 272.44C249.41 270.01 247.81 267.58 244.6 265.73C238.18 262.02 227.77 262.02 221.34 265.73C218.13 267.58 216.53 270.01 216.53 272.44V278.93C216.53 281.36 218.13 283.79 221.34 285.64C227.76 289.35 238.18 289.35 244.6 285.64C247.81 283.79 249.41 281.36 249.41 278.93V272.44Z" fill="#EF1A23"/>
<path opacity="0.3" d="M244.6 265.73C247.81 267.58 249.41 270.01 249.41 272.44V278.93C249.41 281.36 247.81 283.79 244.6 285.64C241.032 287.536 237.04 288.493 233 288.42V263C237.037 262.907 241.029 263.847 244.6 265.73Z" fill="black"/>
<path opacity="0.4" d="M221.34 265.73C218.13 267.58 216.53 270.01 216.53 272.44V278.93C216.53 281.36 218.13 283.79 221.34 285.64C224.926 287.546 228.94 288.503 233 288.42V263C228.944 262.897 224.929 263.837 221.34 265.73Z" fill="black"/>
<path d="M221.34 265.73C214.92 269.43 214.92 275.44 221.34 279.15C227.76 282.86 238.18 282.86 244.6 279.15C251.02 275.44 251.02 269.43 244.6 265.73C238.18 262.03 227.77 262 221.34 265.73Z" fill="#EF1A23"/>
<path opacity="0.3" d="M221.34 265.73C214.92 269.43 214.92 275.44 221.34 279.15C227.76 282.86 238.18 282.86 244.6 279.15C251.02 275.44 251.02 269.43 244.6 265.73C238.18 262.03 227.77 262 221.34 265.73Z" fill="white"/>
<path d="M249.41 309.58C249.41 307.16 247.81 304.73 244.6 302.87C238.18 299.16 227.77 299.16 221.34 302.87C218.13 304.73 216.53 307.15 216.53 309.58V316.07C216.53 318.5 218.13 320.93 221.34 322.78C227.76 326.49 238.18 326.49 244.6 322.78C247.81 320.93 249.41 318.5 249.41 316.07V309.58Z" fill="#EF1A23"/>
<path opacity="0.3" d="M244.6 302.87C247.81 304.73 249.41 307.15 249.41 309.58V316.07C249.41 318.5 247.81 320.93 244.6 322.78C241.035 324.684 237.042 325.644 233 325.57V300.09C237.04 300.017 241.032 300.974 244.6 302.87Z" fill="black"/>
<path opacity="0.4" d="M221.34 302.87C218.13 304.73 216.53 307.15 216.53 309.58V316.07C216.53 318.5 218.13 320.93 221.34 322.78C224.924 324.694 228.939 325.654 233 325.57V300.09C228.94 300.007 224.926 300.964 221.34 302.87Z" fill="black"/>
<path d="M221.34 302.87C214.92 306.58 214.92 312.59 221.34 316.3C227.76 320.01 238.18 320 244.6 316.3C251.02 312.6 251.02 306.58 244.6 302.87C238.18 299.16 227.77 299.16 221.34 302.87Z" fill="#EF1A23"/>
<path opacity="0.3" d="M221.34 302.87C214.92 306.58 214.92 312.59 221.34 316.3C227.76 320.01 238.18 320 244.6 316.3C251.02 312.6 251.02 306.58 244.6 302.87C238.18 299.16 227.77 299.16 221.34 302.87Z" fill="white"/>
<path d="M217.25 291C217.25 288.57 215.65 286.14 212.44 284.29C206.02 280.58 195.61 280.58 189.18 284.29C185.97 286.14 184.37 288.57 184.37 291V297.49C184.37 299.92 185.97 302.35 189.18 304.2C195.6 307.91 206.02 307.91 212.44 304.2C215.65 302.35 217.25 299.92 217.25 297.49V291Z" fill="#EF1A23"/>
<path opacity="0.3" d="M212.44 284.29C215.65 286.14 217.25 288.57 217.25 291V297.49C217.25 299.92 215.65 302.35 212.44 304.2C208.867 306.112 204.862 307.076 200.81 307V281.51C204.86 281.432 208.863 282.389 212.44 284.29Z" fill="black"/>
<path opacity="0.4" d="M189.18 284.29C185.97 286.14 184.37 288.57 184.37 291V297.49C184.37 299.92 185.97 302.35 189.18 304.2C192.754 306.112 196.758 307.076 200.81 307V281.51C196.76 281.434 192.758 282.39 189.18 284.29Z" fill="black"/>
<path d="M189.18 284.29C182.76 288 182.76 294.01 189.18 297.71C195.6 301.41 206.02 301.42 212.44 297.71C218.86 294 218.86 288 212.44 284.29C206.02 280.58 195.61 280.58 189.18 284.29Z" fill="#EF1A23"/>
<path opacity="0.3" d="M189.18 284.29C182.76 288 182.76 294.01 189.18 297.71C195.6 301.41 206.02 301.42 212.44 297.71C218.86 294 218.86 288 212.44 284.29C206.02 280.58 195.61 280.58 189.18 284.29Z" fill="white"/>
<path d="M281.57 291C281.57 288.57 279.97 286.15 276.75 284.29C270.33 280.58 259.92 280.58 253.5 284.29C250.29 286.14 248.69 288.57 248.69 291V297.49C248.69 299.92 250.29 302.35 253.5 304.2C259.92 307.91 270.33 307.91 276.75 304.2C279.97 302.35 281.57 299.92 281.57 297.49V291Z" fill="#EF1A23"/>
<path opacity="0.3" d="M276.75 284.3C279.96 286.15 281.57 288.58 281.57 291.01V297.5C281.57 299.93 279.97 302.36 276.76 304.21C273.185 306.118 269.182 307.078 265.13 307V281.52C269.177 281.442 273.177 282.399 276.75 284.3Z" fill="black"/>
<path opacity="0.4" d="M253.5 284.3C250.29 286.15 248.69 288.58 248.69 291.01V297.5C248.69 299.93 250.29 302.36 253.5 304.21C257.075 306.119 261.079 307.08 265.13 307V281.52C261.08 281.442 257.077 282.399 253.5 284.3Z" fill="black"/>
<path d="M253.5 284.3C247.08 288.01 247.08 294.02 253.5 297.73C259.92 301.44 270.33 301.43 276.75 297.73C283.17 294.03 283.18 288.01 276.75 284.3C270.32 280.59 259.92 280.59 253.5 284.3Z" fill="#EF1A23"/>
<path opacity="0.3" d="M253.5 284.3C247.08 288.01 247.08 294.02 253.5 297.73C259.92 301.44 270.33 301.43 276.75 297.73C283.17 294.03 283.18 288.01 276.75 284.3C270.32 280.59 259.92 280.59 253.5 284.3Z" fill="white"/>
<path d="M298.93 292.51L232.97 330.59V290.51L298.93 252.43V292.51Z" fill="#EF1A23"/>
<path opacity="0.1" d="M298.93 292.51L232.97 330.59V290.51L298.93 252.43V292.51Z" fill="black"/>
<path d="M167.01 292.51L232.97 330.59V290.51L167.01 252.43V292.51Z" fill="#EF1A23"/>
<path opacity="0.2" d="M167.01 292.51L232.97 330.59V290.51L167.01 252.43V292.51Z" fill="black"/>
<path d="M298.93 252.43L232.97 214.34L167.01 252.43L232.97 290.51L298.93 252.43Z" fill="#EF1A23"/>
<path d="M249.41 229.44C249.41 227.01 247.81 224.59 244.6 222.73C238.18 219.02 227.77 219.02 221.34 222.73C218.13 224.59 216.53 227.01 216.53 229.44V235.93C216.53 238.36 218.13 240.79 221.34 242.64C227.76 246.35 238.18 246.35 244.6 242.64C247.81 240.79 249.41 238.36 249.41 235.93V229.44Z" fill="#EF1A23"/>
<path opacity="0.1" d="M244.6 222.73C247.81 224.59 249.41 227.01 249.41 229.44V235.93C249.41 238.36 247.81 240.79 244.6 242.64C241.034 244.541 237.041 245.498 233 245.42V220C237.036 219.912 241.028 220.851 244.6 222.73Z" fill="black"/>
<path opacity="0.2" d="M221.34 222.73C218.13 224.59 216.53 227.01 216.53 229.44V235.93C216.53 238.36 218.13 240.79 221.34 242.64C224.925 244.551 228.94 245.508 233 245.42V220C228.944 219.902 224.931 220.842 221.34 222.73Z" fill="black"/>
<path d="M221.34 222.73C214.92 226.44 214.92 232.45 221.34 236.16C227.76 239.87 238.18 239.86 244.6 236.16C251.02 232.46 251.02 226.44 244.6 222.73C238.18 219.02 227.77 219 221.34 222.73Z" fill="#EF1A23"/>
<path opacity="0.3" d="M221.34 222.73C214.92 226.44 214.92 232.45 221.34 236.16C227.76 239.87 238.18 239.86 244.6 236.16C251.02 232.46 251.02 226.44 244.6 222.73C238.18 219.02 227.77 219 221.34 222.73Z" fill="white"/>
<path d="M249.41 266.59C249.41 264.16 247.81 261.73 244.6 259.88C238.18 256.17 227.77 256.17 221.34 259.88C218.13 261.73 216.53 264.16 216.53 266.59V273.08C216.53 275.51 218.13 277.94 221.34 279.79C227.76 283.5 238.18 283.5 244.6 279.79C247.81 277.94 249.41 275.51 249.41 273.08V266.59Z" fill="#EF1A23"/>
<path opacity="0.1" d="M244.6 259.88C247.81 261.73 249.41 264.16 249.41 266.59V273.08C249.41 275.51 247.81 277.94 244.6 279.79C241.032 281.686 237.04 282.643 233 282.57V257.1C237.041 257.023 241.034 257.98 244.6 259.88Z" fill="black"/>
<path opacity="0.2" d="M221.34 259.88C218.13 261.73 216.53 264.16 216.53 266.59V273.08C216.53 275.51 218.13 277.94 221.34 279.79C224.926 281.696 228.94 282.653 233 282.57V257.1C228.94 257.012 224.925 257.97 221.34 259.88Z" fill="black"/>
<path d="M221.34 259.88C214.92 263.59 214.92 269.6 221.34 273.3C227.76 277 238.18 277.01 244.6 273.3C251.02 269.59 251.02 263.59 244.6 259.88C238.18 256.17 227.77 256.17 221.34 259.88Z" fill="#EF1A23"/>
<path opacity="0.3" d="M221.34 259.88C214.92 263.59 214.92 269.6 221.34 273.3C227.76 277 238.18 277.01 244.6 273.3C251.02 269.59 251.02 263.59 244.6 259.88C238.18 256.17 227.77 256.17 221.34 259.88Z" fill="white"/>
<path d="M217.25 248C217.25 245.57 215.65 243.14 212.44 241.29C206.02 237.58 195.61 237.58 189.18 241.29C185.97 243.14 184.37 245.57 184.37 248V254.49C184.37 256.92 185.97 259.34 189.18 261.2C195.6 264.9 206.02 264.91 212.44 261.2C215.65 259.34 217.25 256.91 217.25 254.49V248Z" fill="#EF1A23"/>
<path opacity="0.1" d="M212.44 241.3C215.65 243.15 217.25 245.58 217.25 248.01V254.5C217.25 256.93 215.65 259.35 212.44 261.21C208.864 263.114 204.861 264.075 200.81 264V238.51C204.861 238.431 208.866 239.391 212.44 241.3Z" fill="black"/>
<path opacity="0.2" d="M189.18 241.3C185.97 243.15 184.37 245.58 184.37 248.01V254.5C184.37 256.93 185.97 259.35 189.18 261.21C192.756 263.114 196.759 264.075 200.81 264V238.51C196.759 238.432 192.755 239.392 189.18 241.3Z" fill="black"/>
<path d="M189.18 241.3C182.76 245 182.76 251.01 189.18 254.72C195.6 258.43 206.02 258.43 212.44 254.72C218.86 251.01 218.86 245 212.44 241.3C206.02 237.6 195.61 237.59 189.18 241.3Z" fill="#EF1A23"/>
<path opacity="0.3" d="M189.18 241.3C182.76 245 182.76 251.01 189.18 254.72C195.6 258.43 206.02 258.43 212.44 254.72C218.86 251.01 218.86 245 212.44 241.3C206.02 237.6 195.61 237.59 189.18 241.3Z" fill="white"/>
<path d="M281.57 248C281.57 245.57 279.97 243.14 276.75 241.29C270.33 237.58 259.92 237.58 253.5 241.29C250.29 243.14 248.69 245.57 248.69 248V254.49C248.69 256.92 250.29 259.35 253.5 261.2C259.92 264.91 270.33 264.91 276.75 261.2C279.97 259.35 281.57 256.92 281.57 254.49V248Z" fill="#EF1A23"/>
<path opacity="0.1" d="M276.75 241.31C279.96 243.16 281.57 245.59 281.57 248.02V254.51C281.57 256.94 279.97 259.37 276.76 261.22C273.183 263.12 269.18 264.076 265.13 264V238.53C269.178 238.447 273.179 239.405 276.75 241.31Z" fill="black"/>
<path opacity="0.2" d="M253.5 241.31C250.29 243.16 248.69 245.59 248.69 248.02V254.51C248.69 256.94 250.29 259.37 253.5 261.22C257.077 263.121 261.08 264.078 265.13 264V238.53C261.08 238.447 257.076 239.405 253.5 241.31Z" fill="black"/>
<path d="M253.5 241.31C247.08 245.01 247.08 251.02 253.5 254.73C259.92 258.44 270.33 258.44 276.75 254.73C283.17 251.02 283.18 245.01 276.75 241.31C270.32 237.61 259.92 237.6 253.5 241.31Z" fill="#EF1A23"/>
<path opacity="0.3" d="M253.5 241.31C247.08 245.01 247.08 251.02 253.5 254.73C259.92 258.44 270.33 258.44 276.75 254.73C283.17 251.02 283.18 245.01 276.75 241.31C270.32 237.61 259.92 237.6 253.5 241.31Z" fill="white"/>
<path d="M229.5 375.59L163.54 413.67V373.59L229.5 335.5V375.59Z" fill="#F1AF06"/>
<path d="M97.5801 375.59L163.54 413.67V373.59L97.5801 335.5V375.59Z" fill="#FFC100"/>
<path d="M229.5 335.5L163.54 297.42L97.5801 335.5L163.54 373.59L229.5 335.5Z" fill="#F1AF06"/>
<path d="M175.17 343C178.38 344.85 179.98 347.28 179.98 349.71V356.2C179.98 358.63 178.38 361.06 175.17 362.91C171.593 364.811 167.59 365.768 163.54 365.69V340.18C167.594 340.11 171.598 341.081 175.17 343Z" fill="#F1AF06"/>
<path d="M151.91 343C148.7 344.85 147.1 347.28 147.1 349.71V356.2C147.1 358.63 148.7 361.06 151.91 362.91C155.487 364.811 159.49 365.768 163.54 365.69V340.18C159.486 340.11 155.482 341.081 151.91 343Z" fill="#FFC100"/>
<path d="M151.91 343C145.49 346.7 145.49 352.72 151.91 356.42C158.33 360.12 168.75 360.13 175.17 356.42C181.59 352.71 181.59 346.71 175.17 343C168.75 339.29 158.34 339.25 151.91 343Z" fill="#F1AF06"/>
<path opacity="0.07" d="M151.91 343C145.49 346.7 145.49 352.72 151.91 356.42C158.33 360.12 168.75 360.13 175.17 356.42C181.59 352.71 181.59 346.71 175.17 343C168.75 339.29 158.34 339.25 151.91 343Z" fill="white"/>
<path d="M175.17 305.81C178.38 307.66 179.98 310.09 179.98 312.52V319C179.98 321.43 178.38 323.86 175.17 325.71C171.595 327.616 167.591 328.573 163.54 328.49V303C167.593 302.932 171.596 303.899 175.17 305.81Z" fill="#F1AF06"/>
<path d="M151.91 305.81C148.7 307.66 147.1 310.09 147.1 312.52V319C147.1 321.43 148.7 323.86 151.91 325.71C155.485 327.616 159.49 328.573 163.54 328.49V303C159.487 302.932 155.484 303.899 151.91 305.81Z" fill="#FFC100"/>
<path d="M151.91 305.81C145.49 309.52 145.49 315.53 151.91 319.24C158.33 322.95 168.75 322.94 175.17 319.24C181.59 315.54 181.59 309.52 175.17 305.81C168.75 302.1 158.34 302.1 151.91 305.81Z" fill="#F1AF06"/>
<path opacity="0.07" d="M151.91 305.81C145.49 309.52 145.49 315.53 151.91 319.24C158.33 322.95 168.75 322.94 175.17 319.24C181.59 315.54 181.59 309.52 175.17 305.81C168.75 302.1 158.34 302.1 151.91 305.81Z" fill="white"/>
<path d="M207.32 324.39C210.53 326.24 212.14 328.67 212.14 331.1V337.59C212.14 340.02 210.54 342.45 207.33 344.3C203.753 346.2 199.75 347.156 195.7 347.08V321.61C199.748 321.527 203.748 322.485 207.32 324.39Z" fill="#F1AF06"/>
<path d="M184.07 324.39C180.86 326.24 179.26 328.67 179.26 331.1V337.59C179.26 340.02 180.86 342.45 184.07 344.3C187.647 346.201 191.65 347.158 195.7 347.08V321.61C191.65 321.527 187.646 322.485 184.07 324.39Z" fill="#FFC100"/>
<path d="M184.07 324.39C177.65 328.09 177.65 334.1 184.07 337.81C190.49 341.52 200.9 341.52 207.32 337.81C213.74 334.1 213.75 328.09 207.32 324.39C200.89 320.69 190.49 320.68 184.07 324.39Z" fill="#F1AF06"/>
<path opacity="0.07" d="M184.07 324.39C177.65 328.09 177.65 334.1 184.07 337.81C190.49 341.52 200.9 341.52 207.32 337.81C213.74 334.1 213.75 328.09 207.32 324.39C200.89 320.69 190.49 320.68 184.07 324.39Z" fill="white"/>
<path d="M143 324.37C146.21 326.23 147.81 328.66 147.81 331.09V337.58C147.81 340 146.21 342.43 143 344.29C139.423 346.191 135.42 347.148 131.37 347.07V321.59C135.42 321.512 139.423 322.469 143 324.37Z" fill="#F1AF06"/>
<path d="M119.75 324.37C116.54 326.23 114.94 328.66 114.94 331.09V337.58C114.94 340 116.54 342.43 119.75 344.29C123.327 346.191 127.33 347.148 131.38 347.07V321.59C127.33 321.514 123.327 322.47 119.75 324.37Z" fill="#FFC100"/>
<path d="M119.75 324.37C113.33 328.08 113.33 334.09 119.75 337.8C126.17 341.51 136.59 341.51 143.01 337.8C149.43 334.09 149.43 328.08 143.01 324.38C136.59 320.68 126.18 320.67 119.75 324.37Z" fill="#F1AF06"/>
<path opacity="0.07" d="M119.75 324.37C113.33 328.08 113.33 334.09 119.75 337.8C126.17 341.51 136.59 341.51 143.01 337.8C149.43 334.09 149.43 328.08 143.01 324.38C136.59 320.68 126.18 320.67 119.75 324.37Z" fill="white"/>
<path d="M368.36 209.44L302.4 247.53V207.44L368.36 169.36V209.44Z" fill="#F1AF06"/>
<path d="M236.44 209.44L302.4 247.53V207.44L236.44 169.36V209.44Z" fill="#FFC100"/>
<path d="M368.36 169.36L302.4 131.28L236.44 169.36L302.4 207.44L368.36 169.36Z" fill="#F2BE1C"/>
<path d="M314 176.81C317.21 178.67 318.81 181.1 318.81 183.52V190C318.81 192.43 317.21 194.86 314 196.72C310.423 198.621 306.42 199.578 302.37 199.5V174C306.423 173.932 310.426 174.899 314 176.81Z" fill="#F1AF06"/>
<path d="M290.77 176.81C287.56 178.67 285.96 181.1 285.96 183.52V190C285.96 192.43 287.56 194.86 290.77 196.72C294.347 198.621 298.35 199.578 302.4 199.5V174C298.347 173.932 294.344 174.899 290.77 176.81Z" fill="#FFC100"/>
<path d="M290.77 176.81C284.35 180.52 284.35 186.53 290.77 190.24C297.19 193.95 307.6 193.94 314.03 190.24C320.46 186.54 320.45 180.52 314.03 176.81C307.61 173.1 297.19 173.11 290.77 176.81Z" fill="#F2BE1C"/>
<path opacity="0.07" d="M290.77 176.81C284.35 180.52 284.35 186.53 290.77 190.24C297.19 193.95 307.6 193.94 314.03 190.24C320.46 186.54 320.45 180.52 314.03 176.81C307.61 173.1 297.19 173.11 290.77 176.81Z" fill="white"/>
<path d="M314 139.67C317.21 141.52 318.81 143.95 318.81 146.38V152.87C318.81 155.3 317.21 157.73 314 159.58C310.423 161.481 306.42 162.438 302.37 162.36V136.89C306.421 136.807 310.425 137.765 314 139.67Z" fill="#F1AF06"/>
<path d="M290.77 139.67C287.56 141.52 285.96 143.95 285.96 146.38V152.87C285.96 155.3 287.56 157.73 290.77 159.58C294.347 161.481 298.35 162.438 302.4 162.36V136.89C298.349 136.807 294.345 137.765 290.77 139.67Z" fill="#FFC100"/>
<path d="M290.77 139.67C284.35 143.37 284.35 149.38 290.77 153.09C297.19 156.8 307.6 156.8 314.03 153.09C320.46 149.38 320.45 143.37 314.03 139.67C307.61 135.97 297.19 136 290.77 139.67Z" fill="#F2BE1C"/>
<path opacity="0.07" d="M290.77 139.67C284.35 143.37 284.35 149.38 290.77 153.09C297.19 156.8 307.6 156.8 314.03 153.09C320.46 149.38 320.45 143.37 314.03 139.67C307.61 135.97 297.19 136 290.77 139.67Z" fill="white"/>
<path d="M346.18 158.24C349.39 160.1 351 162.52 351 164.95V171.44C351 173.87 349.39 176.3 346.18 178.15C342.608 180.056 338.607 181.013 334.56 180.93V155.46C338.607 155.382 342.607 156.339 346.18 158.24Z" fill="#F1AF06"/>
<path d="M322.93 158.24C319.72 160.1 318.12 162.52 318.12 164.95V171.44C318.12 173.87 319.72 176.3 322.93 178.15C326.505 180.056 330.51 181.013 334.56 180.93V155.46C330.51 155.382 326.507 156.339 322.93 158.24Z" fill="#FFC100"/>
<path d="M322.93 158.24C316.51 161.95 316.51 167.96 322.93 171.67C329.35 175.38 339.76 175.37 346.18 171.67C352.6 167.97 352.61 161.95 346.18 158.24C339.75 154.53 329.35 154.53 322.93 158.24Z" fill="#F2BE1C"/>
<path opacity="0.07" d="M322.93 158.24C316.51 161.95 316.51 167.96 322.93 171.67C329.35 175.38 339.76 175.37 346.18 171.67C352.6 167.97 352.61 161.95 346.18 158.24C339.75 154.53 329.35 154.53 322.93 158.24Z" fill="white"/>
<path d="M281.87 158.23C285.08 160.08 286.68 162.51 286.68 164.94V171.43C286.68 173.86 285.08 176.29 281.87 178.14C278.294 180.046 274.29 181.003 270.24 180.92V155.45C274.29 155.372 278.293 156.329 281.87 158.23Z" fill="#F1AF06"/>
<path d="M258.61 158.23C255.4 160.08 253.8 162.51 253.8 164.94V171.43C253.8 173.86 255.4 176.29 258.61 178.14C262.185 180.046 266.189 181.003 270.24 180.92V155.45C266.19 155.372 262.187 156.329 258.61 158.23Z" fill="#FFC100"/>
<path d="M258.61 158.23C252.19 161.94 252.19 167.95 258.61 171.65C265.03 175.35 275.45 175.36 281.87 171.65C288.29 167.94 288.29 161.93 281.87 158.22C275.45 154.51 265 154.52 258.61 158.23Z" fill="#F2BE1C"/>
<path opacity="0.07" d="M258.61 158.23C252.19 161.94 252.19 167.95 258.61 171.65C265.03 175.35 275.45 175.36 281.87 171.65C288.29 167.94 288.29 161.93 281.87 158.22C275.45 154.51 265 154.52 258.61 158.23Z" fill="white"/>
<path d="M345.94 83.23L351.94 86.69C351.908 86.4278 351.892 86.164 351.89 85.9V84.16C351.89 81.07 354.06 79.81 356.74 81.36C357.895 82.0676 358.884 83.0158 359.64 84.14C360.08 80.25 363.13 78.8 366.84 80.94C368.95 82.3192 370.706 84.1757 371.966 86.3595C373.225 88.5432 373.953 90.9928 374.09 93.51V96.11C374.113 97.1429 373.904 98.1679 373.48 99.11L378.48 101.99C379.264 102.5 379.915 103.188 380.383 103.998C380.85 104.808 381.12 105.716 381.17 106.65C381.17 108.36 379.96 109.06 378.48 108.2L345.94 89.44C345.155 88.9309 344.503 88.2433 344.035 87.4333C343.567 86.6233 343.298 85.714 343.25 84.78C343.25 83.07 344.45 82.37 345.94 83.23Z" fill="#D9D9D9"/>
<path d="M385.62 67.29L388.93 68.56V61.27C388.93 55.48 393.54 54.1 398.55 56.99C403.55 59.88 407.61 66.91 407.61 72.69V73.75C408.315 73.5315 409.06 73.4765 409.79 73.5892C410.519 73.7018 411.214 73.9791 411.82 74.4C413.718 75.6385 415.298 77.3071 416.431 79.2705C417.564 81.2338 418.218 83.4366 418.34 85.7V86.18L423 88.85C424.251 89.665 425.292 90.7634 426.039 92.056C426.786 93.3487 427.218 94.7992 427.3 96.29C427.3 99.03 425.37 100.14 423 98.77L385.62 77.21C384.368 76.3962 383.326 75.2981 382.578 74.0052C381.831 72.7123 381.4 71.2611 381.32 69.77C381.32 67 383.24 65.92 385.62 67.29Z" fill="#D9D9D9"/>
<path d="M105 69.06H100.94C98.335 69.064 95.7545 68.5542 93.3463 67.5599C90.9382 66.5657 88.7497 65.1063 86.9061 63.2655C85.0624 61.4246 83.5998 59.2384 82.6019 56.8317C81.604 54.4251 81.0903 51.8453 81.0903 49.24C81.089 46.5274 81.6222 43.8411 82.6594 41.3345C83.6965 38.828 85.2174 36.5504 87.135 34.6318C89.0527 32.7132 91.3296 31.1912 93.8356 30.1529C96.3416 29.1145 99.0277 28.58 101.74 28.58H104.15C109.628 28.5827 114.88 30.7605 118.753 34.6347C122.625 38.5089 124.8 43.7624 124.8 49.24C124.8 54.4931 122.715 59.5314 119.002 63.2478C115.29 66.9642 110.253 69.0547 105 69.06Z" fill="#263238"/>
<path d="M78.36 60.51C81.8 57.21 85.81 59.1 89.36 62.78C92.91 66.46 94.62 70.55 91.18 73.85C87.74 77.15 82.09 76.85 78.55 73.16C75.01 69.47 74.92 63.81 78.36 60.51Z" fill="#263238"/>
<path d="M126.31 89.68C131.1 97.79 136.88 107.61 140.12 110.99C146.27 113.85 160.33 119.2 165.98 119.99C166.976 120.111 167.983 119.874 168.82 119.32C171.04 117.86 172.76 117.63 175.11 116.82C176.94 116.18 177.72 115.31 178.11 115.64C178.463 116.055 178.639 116.592 178.602 117.136C178.564 117.679 178.316 118.187 177.91 118.55C177.032 119.385 176.059 120.114 175.01 120.72C177.518 121.339 180.133 121.383 182.66 120.85C187.56 119.57 189.87 121.92 186.56 127.23C185.37 129.14 180.71 132.18 171.25 131.36C167.879 131.167 164.523 130.77 161.2 130.17C152.13 128.24 142.44 125.41 136.2 123.55C133.904 122.643 131.85 121.216 130.2 119.38C119.77 107.49 114.65 96.96 110.08 89.26L110.47 76.68C117.84 76.4 122.3 82.89 126.31 89.68Z" fill="#FFA8A7"/>
<path d="M77.1703 278.2C76.6832 280.924 76.4223 283.683 76.3903 286.45C76.2903 291.45 75.3903 293.23 75.2503 297.34C75.1103 302.03 75.9203 303.79 77.8303 306.43C79.7403 309.07 84.7303 311.43 86.8303 307C88.9303 302.57 88.6703 299.62 88.0003 295C87.3303 290.38 87.2103 287.61 86.8103 284C86.4503 280.8 86.0203 278.37 86.0203 278.37L77.1703 278.2Z" fill="#263238"/>
<path d="M91.3801 238.84L74.8901 238.54C75.1401 249.54 76.8901 267.87 77.1701 278.2C77.1701 280.15 77.1701 293.31 77.8601 297.31C78.9601 303.31 86.0901 302.51 86.4701 298.91C86.8501 295.31 86.0001 280 86.0001 278.36C85.9401 271.74 89.0001 254.45 90.6701 242.56C90.7801 242 91.3001 239.41 91.3801 238.84Z" fill="#FFA8A7"/>
<path d="M115.61 269.64C115.61 269.64 114.76 269.69 114.61 270.38C114.46 271.07 114.41 272.51 114.07 273.87C113.508 275.998 113.308 278.206 113.48 280.4C113.76 281.93 117.27 284.22 119.67 284.63C122.07 285.04 125.46 287.4 127.34 289.17C130.357 291.665 134.092 293.133 138 293.36C142 293.36 144.8 292.03 146.12 289.88C147.44 287.73 144.91 287.48 140.34 284.51L136.78 282.2C129.53 277.46 126.87 274.92 124.78 270.2L115.61 269.64Z" fill="#263238"/>
<path d="M124.9 266.7C124.78 263.3 127.12 228.28 127.12 228.28L111.46 235.42C114.81 255.42 115.97 266.62 115.58 269.53C115.514 269.805 115.484 270.087 115.49 270.37C115.49 274.26 119.9 276.37 123.32 278.95C124.67 279.95 128.15 283.13 132.22 284.51C134.86 285.41 139.73 285.75 140.35 284.15C136.19 280.97 130.52 276.81 127.2 273.15C125.62 271.45 125 270.11 124.9 266.7Z" fill="#FFA8A7"/>
<path d="M81.6502 131.45C75.6502 144.65 75.6502 154.86 76.6502 171.7C77.5602 187.15 79.0102 200.76 79.0102 200.76C78.7802 203.5 75.0102 208.85 74.4802 220.97C74.2899 229.551 74.5503 238.136 75.2602 246.69C75.2602 246.69 83.8102 251.43 90.1402 246.69C90.1402 246.69 96.2402 217.55 98.0302 203.37C99.5902 190.99 103.96 165.28 103.96 165.28L111.1 203.28C109.859 207.266 108.959 211.351 108.41 215.49C107.6 223.83 112.26 240.21 112.26 240.21C112.26 240.21 121.1 242.85 126.5 238.06C126.5 238.06 128.5 211.43 129.27 201.39C130.27 187.93 127.99 151.13 124.91 132.25L81.6502 131.45Z" fill="#37474F"/>
<path d="M103.94 165.24L105.77 152.65C105.77 152.65 116.41 151.23 121.23 146.65C119.85 148.811 118.011 150.642 115.844 152.012C113.676 153.383 111.234 154.26 108.69 154.58L106.81 166L110.07 199L103.94 165.24Z" fill="#263238"/>
<path d="M94.5202 77.08C91.3402 77.3 87.2202 77.95 87.2202 77.95C83.8802 79.82 82.2202 83.22 82.2202 87.19C82.2202 91.53 79.8002 93.96 81.1202 101.11L86.3302 114.11C86.0802 117.36 82.1802 125 79.9502 135.59C92.6902 142.7 108.95 141.04 117.95 137.19C120.655 136.15 123.06 134.456 124.95 132.26C123.47 124.46 122.95 124.56 122.13 117.43C121.728 114.552 121.567 111.645 121.65 108.74C125.73 103.49 127.91 98.35 125.85 93.63C121.65 84.05 113.8 76.34 109.76 76.63L94.5202 77.08Z" fill="#EF1A23"/>
<path opacity="0.7" d="M94.5202 77.08C91.3402 77.3 87.2202 77.95 87.2202 77.95C83.8802 79.82 82.2202 83.22 82.2202 87.19C82.2202 91.53 79.8002 93.96 81.1202 101.11L86.3302 114.11C86.0802 117.36 82.1802 125 79.9502 135.59C92.6902 142.7 108.95 141.04 117.95 137.19C120.655 136.15 123.06 134.456 124.95 132.26C123.47 124.46 122.95 124.56 122.13 117.43C121.728 114.552 121.567 111.645 121.65 108.74C125.73 103.49 127.91 98.35 125.85 93.63C121.65 84.05 113.8 76.34 109.76 76.63L94.5202 77.08Z" fill="white"/>
<path opacity="0.1" d="M112.69 108.22C112.69 108.22 106.87 112.74 100.23 110.38C98.3658 109.789 96.6853 108.728 95.3506 107.299C94.0159 105.869 93.072 104.12 92.61 102.22C92.61 102.22 91.91 109.81 100.29 112.4C102.532 113.123 104.947 113.107 107.179 112.354C109.411 111.602 111.343 110.153 112.69 108.22Z" fill="black"/>
<path d="M116.69 37.87C119 39.24 121.86 45.04 121.58 57.21C121.34 67.53 117.99 70.08 116.31 70.81C114.63 71.54 111.4 71.1 108.25 70.58V76.77C108.25 76.77 111.88 80.57 111.6 83.41C111.32 86.25 105.91 86.57 101.83 83.79C99.359 82.1009 97.1546 80.0516 95.2901 77.71V62.36C95.2901 62.36 93.5701 64.19 90.5201 62.09C89.8617 61.6724 89.2976 61.1221 88.8638 60.4743C88.4299 59.8265 88.1359 59.0954 88.0004 58.3276C87.8649 57.5598 87.8909 56.7722 88.0768 56.015C88.2627 55.2578 88.6044 54.5477 89.0801 53.93C90.4001 52.37 93.7701 52.26 95.3901 54.68C95.3901 54.68 99.6201 54.31 106.31 50.68C108.797 49.3319 110.994 47.5066 112.776 45.3085C114.557 43.1104 115.887 40.5827 116.69 37.87Z" fill="#FFA8A7"/>
<path d="M118 37.86C118 37.86 120.66 44.17 113.42 49.37C113.42 49.37 117.21 44.84 115.84 39.15C114.71 34.41 117.76 35.65 118 37.86Z" fill="#263238"/>
<path d="M108.9 54.62C108.919 54.9659 108.8 55.3054 108.57 55.564C108.339 55.8226 108.016 55.9794 107.67 56C107.321 56.0081 106.982 55.8784 106.728 55.6389C106.473 55.3994 106.323 55.0693 106.31 54.72C106.288 54.5428 106.303 54.3629 106.354 54.1917C106.405 54.0205 106.49 53.8616 106.605 53.7249C106.72 53.5882 106.862 53.4766 107.022 53.3972C107.182 53.3178 107.357 53.2722 107.535 53.2632C107.714 53.2543 107.892 53.2822 108.059 53.3452C108.226 53.4082 108.378 53.505 108.506 53.6294C108.635 53.7539 108.736 53.9035 108.803 54.0688C108.871 54.234 108.904 54.4115 108.9 54.59V54.62Z" fill="#263238"/>
<path d="M110.4 63.37L113.4 64.37C113.347 64.5766 113.251 64.77 113.12 64.938C112.988 65.106 112.824 65.2451 112.636 65.3464C112.448 65.4478 112.241 65.5093 112.029 65.5272C111.816 65.545 111.602 65.5187 111.4 65.45C110.995 65.3028 110.663 65.0027 110.476 64.6139C110.289 64.2251 110.262 63.7786 110.4 63.37Z" fill="#F28F8F"/>
<path d="M120.4 50.64L117.78 48.82C117.89 48.6426 118.034 48.4894 118.205 48.3699C118.376 48.2503 118.569 48.1669 118.773 48.1248C118.977 48.0827 119.188 48.0827 119.392 48.1248C119.596 48.167 119.79 48.2504 119.96 48.37C120.308 48.6217 120.548 48.9964 120.629 49.418C120.711 49.8396 120.629 50.2766 120.4 50.64Z" fill="#263238"/>
<path d="M119.8 53.69C119.802 53.9445 119.729 54.1938 119.59 54.4071C119.451 54.6204 119.253 54.7883 119.019 54.8899C118.786 54.9916 118.528 55.0225 118.277 54.9789C118.027 54.9353 117.794 54.819 117.609 54.6446C117.424 54.4701 117.294 54.2451 117.235 53.9975C117.177 53.7499 117.192 53.4905 117.279 53.2515C117.367 53.0125 117.522 52.8044 117.727 52.6531C117.932 52.5017 118.176 52.4137 118.43 52.4C118.782 52.3919 119.123 52.5227 119.38 52.7641C119.636 53.0055 119.787 53.3381 119.8 53.69Z" fill="#263238"/>
<path d="M112.6 52.94L112.8 60.75L116.91 59.48L112.6 52.94Z" fill="#F28F8F"/>
<path d="M108.25 70.58C104.93 70.14 98.1 68.18 97.04 65.48C97.4651 66.8474 98.2993 68.0516 99.43 68.93C101.43 70.67 108.25 72.64 108.25 72.64V70.58Z" fill="#F28F8F"/>
<path d="M220.79 178.54L154.83 216.63V176.54L220.79 138.46V178.54Z" fill="#EF1A23"/>
<path opacity="0.3" d="M220.79 178.54L154.83 216.63V176.54L220.79 138.46V178.54Z" fill="black"/>
<path d="M88.8701 178.54L154.83 216.63V176.54L88.8701 138.46V178.54Z" fill="#EF1A23"/>
<path opacity="0.4" d="M88.8701 178.54L154.83 216.63V176.54L88.8701 138.46V178.54Z" fill="black"/>
<path opacity="0.1" d="M100.83 162.77L97.2901 159.23C96.7901 158.74 96.2401 158.3 95.7601 157.77C95.5801 157.58 94.6601 156.51 94.9501 156.22C94.984 156.195 95.0231 156.177 95.0646 156.168C95.106 156.16 95.1489 156.16 95.1901 156.17C96.7601 156.33 98.7501 156.26 99.8501 154.94C100.041 154.72 100.172 154.455 100.23 154.17C100.263 153.961 100.217 153.747 100.1 153.57C99.8701 153.23 99.2701 153.23 98.9001 153.12C98.4302 152.977 97.9775 152.782 97.5501 152.54C96.8142 152.147 96.0485 151.813 95.2601 151.54L92.1201 150.87C91.6661 150.51 91.1446 150.245 90.5863 150.091C90.0281 149.936 89.4445 149.895 88.8701 149.97V167.88C90.1683 168.605 91.6077 169.042 93.0901 169.16C95.0494 169.387 97.0331 169.065 98.8201 168.23C100.27 167.51 102.57 165.65 101.65 163.76C101.432 163.388 101.155 163.054 100.83 162.77Z" fill="black"/>
<path d="M220.79 138.46L154.83 100.38L88.8701 138.46L154.83 176.54L220.79 138.46Z" fill="#EF1A23"/>
<path opacity="0.15" d="M220.79 138.46L154.83 100.38L88.8701 138.46L154.83 176.54L220.79 138.46Z" fill="black"/>
<path d="M171.27 115.48C171.27 113.05 169.67 110.62 166.45 108.77C160.03 105.06 149.62 105.06 143.2 108.77C139.99 110.62 138.39 113.05 138.39 115.48V122C138.39 124.43 139.99 126.85 143.2 128.71C149.62 132.41 160.03 132.42 166.45 128.71C169.67 126.85 171.27 124.42 171.27 122V115.48Z" fill="#EF1A23"/>
<path opacity="0.3" d="M166.45 108.77C169.66 110.62 171.27 113.05 171.27 115.48V122C171.27 124.43 169.67 126.85 166.45 128.71C162.877 130.611 158.877 131.568 154.83 131.49V106C158.877 105.915 162.877 106.868 166.45 108.77Z" fill="black"/>
<path opacity="0.4" d="M143.2 108.77C139.99 110.62 138.39 113.05 138.39 115.48V122C138.39 124.43 139.99 126.85 143.2 128.71C146.777 130.611 150.78 131.568 154.83 131.49V106C150.781 105.915 146.777 106.868 143.2 108.77Z" fill="black"/>
<path d="M143.2 108.77C136.78 112.47 136.78 118.48 143.2 122.19C149.62 125.9 160.03 125.9 166.45 122.19C172.87 118.48 172.88 112.47 166.45 108.77C160.02 105.07 149.62 105.06 143.2 108.77Z" fill="#EF1A23"/>
<path d="M171.27 152.62C171.27 150.19 169.67 147.77 166.45 145.91C160.03 142.2 149.62 142.2 143.2 145.91C139.99 147.76 138.39 150.19 138.39 152.62V159.11C138.39 161.54 139.99 163.97 143.2 165.82C149.62 169.53 160.03 169.53 166.45 165.82C169.67 163.97 171.27 161.54 171.27 159.11V152.62Z" fill="#EF1A23"/>
<path opacity="0.3" d="M166.45 145.91C169.66 147.76 171.27 150.19 171.27 152.62V159.11C171.27 161.54 169.67 163.97 166.45 165.82C162.878 167.726 158.877 168.683 154.83 168.6V143.13C158.877 143.052 162.877 144.009 166.45 145.91Z" fill="black"/>
<path opacity="0.4" d="M143.2 145.91C139.99 147.76 138.39 150.19 138.39 152.62V159.11C138.39 161.54 139.99 163.97 143.2 165.82C146.775 167.725 150.78 168.683 154.83 168.6V143.13C150.78 143.052 146.777 144.009 143.2 145.91Z" fill="black"/>
<path d="M143.2 145.91C136.78 149.62 136.78 155.63 143.2 159.34C149.62 163.05 160.03 163.04 166.45 159.34C172.87 155.64 172.88 149.62 166.45 145.91C160.02 142.2 149.62 142.2 143.2 145.91Z" fill="#EF1A23"/>
<path d="M139.11 134C139.11 131.57 137.51 129.14 134.3 127.29C127.87 123.58 117.46 123.58 111.04 127.29C107.83 129.14 106.23 131.57 106.23 134V140.49C106.23 142.92 107.83 145.35 111.04 147.2C117.46 150.91 127.87 150.91 134.3 147.2C137.51 145.35 139.11 142.92 139.11 140.49V134Z" fill="#EF1A23"/>
<path opacity="0.3" d="M134.3 127.33C137.51 129.18 139.11 131.61 139.11 134.04V140.53C139.11 142.96 137.51 145.39 134.3 147.24C130.721 149.134 126.718 150.084 122.67 150V124.55C126.72 124.474 130.722 125.43 134.3 127.33Z" fill="black"/>
<path opacity="0.4" d="M111 127.33C107.79 129.18 106.19 131.61 106.19 134.04V140.53C106.19 142.96 107.79 145.39 111 147.24C114.591 149.141 118.608 150.091 122.67 150V124.55C118.606 124.465 114.589 125.422 111 127.33Z" fill="black"/>
<path d="M111 127.33C104.58 131.04 104.58 137.05 111 140.75C117.42 144.45 127.83 144.46 134.26 140.75C140.69 137.04 140.68 131.04 134.26 127.33C127.84 123.62 117.46 123.62 111 127.33Z" fill="#EF1A23"/>
<path d="M203.43 134.05C203.43 131.62 201.82 129.19 198.61 127.34C192.19 123.63 181.78 123.63 175.36 127.34C172.15 129.19 170.54 131.62 170.55 134.05V140.54C170.55 142.97 172.15 145.4 175.36 147.25C181.78 150.96 192.19 150.96 198.61 147.25C201.82 145.4 203.43 142.97 203.43 140.54V134.05Z" fill="#EF1A23"/>
<path opacity="0.3" d="M198.61 127.34C201.82 129.19 203.43 131.62 203.43 134.05V140.54C203.43 142.97 201.82 145.4 198.61 147.25C195.038 149.142 191.041 150.089 187 150V124.56C191.043 124.485 195.039 125.442 198.61 127.34Z" fill="black"/>
<path opacity="0.4" d="M175.36 127.34C172.15 129.19 170.54 131.62 170.55 134.05V140.54C170.55 142.97 172.15 145.4 175.36 147.25C178.941 149.147 182.949 150.094 187 150V124.56C182.947 124.481 178.94 125.437 175.36 127.34Z" fill="black"/>
<path d="M175.36 127.34C168.94 131.05 168.94 137.06 175.36 140.77C181.78 144.48 192.19 144.47 198.61 140.77C205.03 137.07 205.03 131.05 198.61 127.34C192.19 123.63 181.78 123.63 175.36 127.34Z" fill="#EF1A23"/>
<path d="M60.5502 116.61C64.3202 108.39 71.0002 95.68 74.1602 89.22C78.7702 79.92 82.5502 77.9 88.8702 77.71C91.3602 79.87 92.5602 87.37 88.5302 96.99C85.1602 102.77 74.7802 120.52 74.7802 120.52C75.2802 121.96 83.3802 141.95 86.7002 146.52C87.2985 147.322 88.1701 147.877 89.1502 148.08C91.7702 148.64 95.1502 150.71 97.3302 151.81C99.0702 152.67 100.26 152.61 100.24 153.09C100.165 153.64 99.886 154.141 99.4577 154.493C99.0294 154.845 98.4838 155.023 97.9302 154.99C96.1917 154.781 94.4705 154.447 92.7802 153.99C94.676 155.978 96.7039 157.835 98.8502 159.55C102.85 162.62 103.37 165.84 97.0902 167.21C92.3402 168.21 89.2902 166.07 83.4202 158.75C81.7302 156.64 79.6902 153.38 77.6202 150.64C72.4102 143.75 69.6202 138.9 66.4502 134.58C57.3802 122.4 59.1602 119.64 60.5502 116.61Z" fill="#FFA8A7"/>
</svg>
