<svg width="32" height="32" viewBox="0 0 32 32" fill="none" xmlns="http://www.w3.org/2000/svg">
<g clip-path="url(#clip0_310_1670)">
<path d="M4 29C4 29.7957 4.31607 30.5587 4.87868 31.1213C5.44129 31.6839 6.20435 32 7 32H25C25.7956 32 26.5587 31.6839 27.1213 31.1213C27.6839 30.5587 28 29.7957 28 29V8.00001H4V29ZM21 13C21 12.7348 21.1054 12.4804 21.2929 12.2929C21.4804 12.1054 21.7348 12 22 12C22.2652 12 22.5196 12.1054 22.7071 12.2929C22.8946 12.4804 23 12.7348 23 13V27C23 27.2652 22.8946 27.5196 22.7071 27.7071C22.5196 27.8947 22.2652 28 22 28C21.7348 28 21.4804 27.8947 21.2929 27.7071C21.1054 27.5196 21 27.2652 21 27V13ZM15 13C15 12.7348 15.1054 12.4804 15.2929 12.2929C15.4804 12.1054 15.7348 12 16 12C16.2652 12 16.5196 12.1054 16.7071 12.2929C16.8946 12.4804 17 12.7348 17 13V27C17 27.2652 16.8946 27.5196 16.7071 27.7071C16.5196 27.8947 16.2652 28 16 28C15.7348 28 15.4804 27.8947 15.2929 27.7071C15.1054 27.5196 15 27.2652 15 27V13ZM9 13C9 12.7348 9.10536 12.4804 9.29289 12.2929C9.48043 12.1054 9.73478 12 10 12C10.2652 12 10.5196 12.1054 10.7071 12.2929C10.8946 12.4804 11 12.7348 11 13V27C11 27.2652 10.8946 27.5196 10.7071 27.7071C10.5196 27.8947 10.2652 28 10 28C9.73478 28 9.48043 27.8947 9.29289 27.7071C9.10536 27.5196 9 27.2652 9 27V13ZM29 2.00001H21.5L20.9125 0.831261C20.788 0.581395 20.5963 0.371213 20.3589 0.22436C20.1216 0.0775074 19.8479 -0.000189248 19.5688 1.09579e-05H12.425C12.1465 -0.0010597 11.8733 0.0763472 11.6368 0.223363C11.4002 0.370379 11.2098 0.581058 11.0875 0.831261L10.5 2.00001H3C2.73478 2.00001 2.48043 2.10537 2.29289 2.2929C2.10536 2.48044 2 2.73479 2 3.00001V5.00001C2 5.26523 2.10536 5.51958 2.29289 5.70712C2.48043 5.89465 2.73478 6.00001 3 6.00001H29C29.2652 6.00001 29.5196 5.89465 29.7071 5.70712C29.8946 5.51958 30 5.26523 30 5.00001V3.00001C30 2.73479 29.8946 2.48044 29.7071 2.2929C29.5196 2.10537 29.2652 2.00001 29 2.00001Z" fill="#484A51"/>
</g>
<defs>
<clipPath id="clip0_310_1670">
<rect width="32" height="32" fill="white"/>
</clipPath>
</defs>
</svg>
